<?xml version="1.0" encoding="UTF-8"?>
<svg id="Layer_2" data-name="Layer 2" xmlns="http://www.w3.org/2000/svg" viewBox="0 0 300 230">
  <defs>
    <style>
      .cls-1 {
        fill: #1c23b2;
      }
    </style>
  </defs>
  <g>
    <path class="cls-1" d="M173.33,116.21v-4.6c0-4.97-4.06-9.03-9.03-9.03h-24.08c-4.97,0-9.03,4.06-9.03,9.03v6.35L1.11,71.71c1.41-20.93,18.97-37.61,40.24-37.61h217.31c21.22,0,38.74,16.61,40.23,37.47l-125.56,44.64Z"/>
    <path class="cls-1" d="M299,84.31v104.35c0,22.18-18.16,40.34-40.34,40.34H41.34c-22.18,0-40.34-18.16-40.34-40.34v-104.2l130.19,46.28v23.76c0,4.97,4.06,9.03,9.03,9.03h24.08c4.97,0,9.03-4.06,9.03-9.03v-25.52l125.67-44.68Z"/>
  </g>
  <rect class="cls-1" x="138.71" y="110.11" width="27.09" height="46.66" rx="7.66" ry="7.66"/>
  <path class="cls-1" d="M201.17.99h-97.83c-4.97,0-9.03,4.06-9.03,9.03v24.08c0,4.97,4.06,9.03,9.03,9.03h.75v-26.07c0-3.46,2.83-6.29,6.29-6.29h82.99c3.46,0,6.29,2.83,6.29,6.29v26.07h1.51c4.97,0,9.03-4.06,9.03-9.03V10.02c0-4.97-4.06-9.03-9.03-9.03Z"/>
</svg>