<?xml version="1.0" encoding="UTF-8"?>
<svg id="Layer_2" data-name="Layer 2" xmlns="http://www.w3.org/2000/svg" viewBox="0 0 300 300">
  <defs>
    <style>
      .cls-1 {
        fill: #1c23b2;
      }
    </style>
  </defs>
  <path class="cls-1" d="M150,0C67.16,0,0,67.16,0,150s67.16,150,150,150,150-67.16,150-150S232.84,0,150,0ZM214.75,177.87c0,9.96-8.07,18.03-18.03,18.03s-18.03-8.07-18.03-18.03,8.07-18.03,18.03-18.03,18.03,8.07,18.03,18.03ZM136.07,236.89h-64.75v-14.81c0-10.83,8.78-19.62,19.62-19.62h25.85c10.65,0,19.29,8.64,19.29,19.29v15.14ZM86.07,178.69c0-9.96,8.07-18.03,18.03-18.03s18.03,8.07,18.03,18.03-8.07,18.03-18.03,18.03-18.03-8.07-18.03-18.03ZM97.54,136.89c-5.41,0-9.84-4.43-9.84-9.84v-59.84c0-5.41,4.43-9.84,9.84-9.84h95.08c5.41,0,9.84,4.43,9.84,9.84v59.84c0,5.41-4.43,9.84-9.84,9.84h-17.21v27.87l-31.58-27.87h-46.28ZM230.33,236.07h-64.75v-14.81c0-10.83,8.78-19.62,19.62-19.62h25.85c10.65,0,19.29,8.64,19.29,19.29v15.14Z"/>
  <rect class="cls-1" x="102.46" y="83.61" width="14.75" height="11.48" rx="5.7" ry="5.7"/>
  <rect class="cls-1" x="120.49" y="83.61" width="14.75" height="11.48" rx="5.7" ry="5.7"/>
  <rect class="cls-1" x="138.52" y="83.61" width="14.75" height="11.48" rx="5.7" ry="5.7"/>
  <rect class="cls-1" x="155.74" y="83.61" width="14.75" height="11.48" rx="5.7" ry="5.7"/>
  <rect class="cls-1" x="173.77" y="83.61" width="14.75" height="11.48" rx="5.7" ry="5.7"/>
  <rect class="cls-1" x="172.13" y="101.64" width="14.75" height="11.48" rx="5.7" ry="5.7"/>
  <rect class="cls-1" x="154.92" y="101.64" width="14.75" height="11.48" rx="5.7" ry="5.7"/>
  <rect class="cls-1" x="136.89" y="101.64" width="14.75" height="11.48" rx="5.7" ry="5.7"/>
</svg>