<?xml version="1.0" encoding="UTF-8"?>
<svg id="Layer_2" data-name="Layer 2" xmlns="http://www.w3.org/2000/svg" viewBox="0 0 300 192">
  <defs>
    <style>
      .cls-1 {
        fill: #f3dcde;
      }
    </style>
  </defs>
  <path class="cls-1" d="M171.26,61.3c-20.77-21.54-41.88,0-41.88,0v76.27c22.21,31.72,41.88,0,41.88,0,0,0,.15-44.41,0-76.27ZM150.4,140.74c-6.79,0-12.29-5.5-12.29-12.29s5.5-12.29,12.29-12.29,12.29,5.5,12.29,12.29-5.5,12.29-12.29,12.29Z"/>
  <path class="cls-1" d="M38.17,43.19c-28.76,44.3-66.65,106.11.49,141.41,2.81,1.47,5.76,2.66,8.82,3.49,65.22,17.7,81.89-50.42,81.89-50.42V61.43s-29.35-53.14-91.21-18.24ZM65.93,170.08c-23.65,0-42.83-19.17-42.83-42.83s19.17-42.83,42.83-42.83,42.83,19.17,42.83,42.83-19.17,42.83-42.83,42.83Z"/>
  <path class="cls-1" d="M50.86,28.12s45.21-10.31,74.55,15.86c2.38-18.24-7.14-38.86-27.76-42.03s-37.28,3.17-46.79,26.17Z"/>
  <path class="cls-1" d="M170.62,61.22v76.24s16.68,68.12,81.89,50.42c3.06-.83,6.02-2.02,8.82-3.49,67.14-35.3,29.25-97.12.49-141.41-61.86-34.9-91.21,18.24-91.21,18.24ZM191.24,127.05c0-23.65,19.17-42.83,42.83-42.83,23.65,0,42.83,19.17,42.83,42.83,0,23.65-19.17,42.83-42.83,42.83s-42.83-19.17-42.83-42.83Z"/>
  <path class="cls-1" d="M249.14,27.91s-45.21-10.31-74.55,15.86c-2.38-18.24,7.14-38.86,27.76-42.03,20.62-3.17,37.28,3.17,46.79,26.17Z"/>
</svg>