<?xml version="1.0" encoding="UTF-8"?>
<svg id="Layer_2" data-name="Layer 2" xmlns="http://www.w3.org/2000/svg" viewBox="0 0 300 300">
  <defs>
    <style>
      .cls-1 {
        fill: #f3dcde;
      }
    </style>
  </defs>
  <path class="cls-1" d="M105.5.37C47.8.37,1.02,47.15,1.02,104.86s46.78,104.49,104.49,104.49,104.49-46.78,104.49-104.49S163.21.37,105.5.37ZM105.5,188.86c-45.83,0-82.97-37.15-82.97-82.97S59.68,22.91,105.5,22.91s82.97,37.15,82.97,82.97-37.15,82.97-82.97,82.97Z"/>
  <rect class="cls-1" x="185.15" y="223.9" width="120.75" height="44.54" rx="12" ry="12" transform="translate(245.98 -101.51) rotate(45)"/>
  <rect class="cls-1" x="171.54" y="183.28" width="44.38" height="21.87" transform="translate(194.07 -80.11) rotate(45)"/>
  <path class="cls-1" d="M152.19,93.73c0-14.48-11.74-26.23-26.23-26.23-8.49,0-16.03,4.03-20.83,10.29-4.81-5.99-12.19-9.83-20.47-9.83-14.48,0-26.23,11.74-26.23,26.23,0,4.06.92,7.91,2.57,11.34,7.66,20.67,43.92,44.4,43.92,44.4,29.41-21.33,39.68-36.13,42.71-41.44,2.87-4.21,4.55-9.29,4.55-14.76Z"/>
</svg>