<?xml version="1.0" encoding="UTF-8"?>
<svg id="Layer_2" data-name="Layer 2" xmlns="http://www.w3.org/2000/svg" viewBox="0 0 300 300">
  <defs>
    <style>
      .cls-1 {
        fill: #f3dcde;
      }
    </style>
  </defs>
  <path class="cls-1" d="M150,0C67.16,0,0,67.16,0,150s67.16,150,150,150,150-67.16,150-150S232.84,0,150,0ZM238.36,151.86l-29.24,63.98c-2.27,4.97-8.2,7.19-13.18,4.91l-62.37-28.5c-2.73-1.25-4.62-3.6-5.4-6.28l-21.69,9.93c-4.97,2.28-10.9.07-13.18-4.9l-29.29-63.95c-2.28-4.97-.07-10.9,4.9-13.18l62.35-28.56c4.97-2.28,10.91-.07,13.18,4.9l12.43,27.14,1.03-2.25c2.27-4.97,8.2-7.19,13.18-4.91l62.37,28.5c4.97,2.27,7.19,8.2,4.91,13.18Z"/>
  <path class="cls-1" d="M156.87,117.34s-30.63,63.15-28.69,68.62c-5.53,2.99-9.04,3.99-9.04,3.99,0,0-.63-12.61,6.83-23.38,6.63-14.09,27-58.46,27-58.46l3.91,9.23Z"/>
  <circle class="cls-1" cx="130.11" cy="111.05" r="11.6"/>
  <circle class="cls-1" cx="89.5" cy="130.11" r="11.6"/>
  <circle class="cls-1" cx="108.56" cy="170.72" r="11.6"/>
  <circle class="cls-1" cx="173.2" cy="135.08" r="11.6"/>
  <circle class="cls-1" cx="183.98" cy="164.92" r="11.6"/>
  <circle class="cls-1" cx="194.75" cy="194.75" r="11.6"/>
</svg>