<?xml version="1.0" encoding="UTF-8"?>
<svg id="Layer_2" data-name="Layer 2" xmlns="http://www.w3.org/2000/svg" viewBox="0 0 335 245">
  <defs>
    <style>
      .cls-1 {
        fill: #1c23b2;
      }

      .cls-2 {
        fill: #11175e;
      }
    </style>
  </defs>
  <path class="cls-1" d="M213.2,60.73c0,2.09-.11,4.16-.32,6.2-9.16-5.76-19.99-9.08-31.6-9.08-32.85,0-59.48,26.62-59.48,59.47,0,9.21,2.1,17.93,5.83,25.71,2.45,6.62,6.2,13.38,10.83,20.11-9.47,7.82-20.22,16.18-32.43,25.04,0,0-82.22-53.83-99.59-100.7-3.74-7.78-5.83-16.5-5.83-25.71C.61,28.94,27.24,2.31,60.08,2.31c18.78,0,35.51,8.7,46.41,22.28,10.87-14.18,27.98-23.32,47.23-23.32,32.85,0,59.48,26.63,59.48,59.47Z"/>
  <path class="cls-2" d="M212.88,66.94c-1.04,10.05-4.59,19.35-10,27.28-5.61,9.84-22.18,34.03-64.42,68.93-4.63-6.73-8.38-13.49-10.83-20.11-3.73-7.78-5.83-16.5-5.83-25.71,0-32.85,26.63-59.47,59.48-59.47,11.61,0,22.44,3.32,31.6,9.08Z"/>
  <path class="cls-1" d="M334.39,116.29c0,12.42-3.8,23.94-10.31,33.48-6.87,12.04-30.16,45.59-96.85,93.97,0,0-60.63-39.7-88.77-80.59,42.24-34.9,58.81-59.09,64.42-68.93,5.41-7.93,8.96-17.23,10-27.28,5.64,3.55,10.65,8.01,14.81,13.2,10.87-14.18,27.98-23.32,47.23-23.32,32.84,0,59.47,26.62,59.47,59.47Z"/>
</svg>