<?xml version="1.0" encoding="UTF-8"?>
<svg id="Layer_2" data-name="Layer 2" xmlns="http://www.w3.org/2000/svg" viewBox="0 0 300 275">
  <defs>
    <style>
      .cls-1 {
        fill: #1c23b2;
      }
    </style>
  </defs>
  <path class="cls-1" d="M251.29.26H48.71C22.41.26.9,21.78.9,48.08v145.63c0,26.3,21.52,47.81,47.81,47.81h202.58c26.3,0,47.81-21.52,47.81-47.81V48.08c0-26.3-21.52-47.81-47.81-47.81ZM223.37,122.71c-5.22,9.14-22.9,34.61-73.53,71.34,0,0-62.42-40.87-75.61-76.45-2.84-5.91-4.43-12.53-4.43-19.52,0-24.94,20.22-45.15,45.15-45.15,14.25,0,26.96,6.6,35.23,16.92,8.25-10.76,21.24-17.71,35.85-17.71,24.94,0,45.15,20.22,45.15,45.15,0,9.43-2.89,18.18-7.83,25.42Z"/>
  <path class="cls-1" d="M248.31,272.98l-40.17-31.12c-7.19-5.57-3.95-18.49,4.7-18.78l39.6-1.32c4.94-.17,9.05,4.35,9.15,10.05l.57,32.45c.15,8.31-7.88,13.36-13.85,8.73Z"/>
</svg>