<?xml version="1.0" encoding="UTF-8"?>
<svg id="Layer_2" data-name="Layer 2" xmlns="http://www.w3.org/2000/svg" viewBox="0 0 299.31 299.31">
  <defs>
    <style>
      .cls-1 {
        fill: #1c23b2;
      }
    </style>
  </defs>
  <path class="cls-1" d="M149.66,0C67,0,0,67,0,149.66s67,149.66,149.66,149.66,149.66-67,149.66-149.66S232.31,0,149.66,0ZM165.06,215.6h-63.97s.79-19.74,7.11-20.53c6.32-.79,3.95-23.69,3.95-23.69,0,0-17.37-26.85-18.16-40.28-.79-13.43,3.16-48.17,54.49-46.59v120.83h11.85s7.9,0,4.74,10.27ZM160.32,198.23v-119.25c34.75,4.74,42.65,25.27,42.65,25.27,0,0,3.16,13.43,6.32,30.01,10.27,15.01,10.27,29.22,10.27,29.22h-10.27c6.32,46.59-48.96,34.75-48.96,34.75Z"/>
  <circle class="cls-1" cx="195.46" cy="133.86" r="6.71"/>
</svg>