<?xml version="1.0" encoding="UTF-8"?>
<svg id="Layer_2" data-name="Layer 2" xmlns="http://www.w3.org/2000/svg" viewBox="0 0 299.56 222.26">
  <defs>
    <style>
      .cls-1 {
        fill: #1c23b2;
      }
    </style>
  </defs>
  <path class="cls-1" d="M144.94,167.66l1.15,53.83s5.73,10.31-100.79-44.67c0-33.21-3.44-46.96,17.18-46.96,20.62,9.16,82.46,37.79,82.46,37.79Z"/>
  <path class="cls-1" d="M144.78,167.66l-1.15,53.83s-5.73,10.31,100.79-44.67c0-33.21,3.44-46.96-17.18-46.96-20.62,9.16-82.46,37.79-82.46,37.79Z"/>
  <path class="cls-1" d="M299.56,71.46v95.06s-14.89,20.62-33.21,0v-62.99s-4.58-13.74-36.65,6.87c-38.94,19.47-71.01,34.36-71.01,34.36,0,0-12.6,8.02-28.63,0-16.03-8.02-125.98-60.7-125.98-60.7,0,0-9.16-11.45,0-19.47C17.82,57.71,128.91,2.74,128.91,2.74c0,0,13.74-6.87,29.78,1.15,24.05,11.45,140.87,67.57,140.87,67.57Z"/>
</svg>