<?xml version="1.0" encoding="UTF-8"?><svg id="Layer_1" xmlns="http://www.w3.org/2000/svg" viewBox="0 0 200 160"><defs><style>.cls-1{fill:#6e6e6e;}</style></defs><g id="_79i83k.tif"><path class="cls-1" d="M.5,50.33s3-24.83,28-24.83,32.84,0,32.84,0h109.68s21.48.66,24.48,24.83l-81,28.17s-1-8-7-8-16,0-16,0c0,0-6,0-6,10L.5,50.33Z"/><path class="cls-1" d="M.5,58.28l85,30.22v14.99s0,7.01,8,7.01,12.63,0,12.63,0c0,0,7.37-1,7.37-6s0-16.5,0-16.5l82-29.72v74.52s-6.17,20.7-29.09,20.7H28.26S.5,153.79.5,118.15v-59.86Z"/><path class="cls-1" d="M91.06,78.5v23.78s.62,4,4.03,3.61h9.37s4.04-.39,4.04-4.39v-22s0-4-4-4-11.06,0-11.06,0c0,0-2.82,1-2.38,3Z"/><path class="cls-1" d="M61.5,25.5h6.58v-11.58s.42-3.42,5.42-3.42h52.84s4.16,0,4.16,5v10h6.9v-15s1.1-6-9.9-6h-57.21s-8.79-1.07-8.79,6.96v14.04Z"/></g></svg>